<svg width="657" height="316" viewBox="0 0 657 316" fill="none" xmlns="http://www.w3.org/2000/svg">
<g clip-path="url(#clip0_0_1)">
<path d="M-27.0218 262.31C-27.8167 259.658 -28.5811 257.006 -29.3302 254.354C-34.9781 234.179 -27.6862 216.035 -21.173 198.269L-11.7276 172.55C-9.82919 167.368 -6.92925 163.018 -3.38046 159.984L23.5414 136.975L50.2141 99.0073C51.8699 96.6418 53.9765 94.9829 56.2849 94.2266L74.3509 88.2527C83.0939 85.3916 86.8393 85.8754 89.6312 91.4608C99.305 110.787 105.765 126.686 114.373 145.944C119.061 156.432 129.885 180.531 130.563 182.123C132.642 187.048 131.77 191.154 131.667 196.79C131.423 209.776 133.006 222.835 136.361 234.948C137.365 238.555 138.521 242.12 139.036 245.915C139.508 249.328 138.75 270.999 138.212 278.327C137.773 284.278 127.552 306.455 123.914 309.128C119.908 312.076 90.2516 327.063 83.7039 329.616C77.1562 332.17 48.8632 323.032 34.1618 319.826C25.0761 317.855 15.9753 315.863 6.88963 313.892C-0.993755 312.181 -8.84539 313.415 -13.2108 302.313C-18.3442 289.323 -22.9428 275.974 -27.0218 262.31Z" fill="url(#paint0_linear_0_1)"/>
<path d="M6.87449 313.871C15.9602 315.842 25.061 317.834 34.1467 319.805C38.8797 320.844 45.0267 322.484 51.402 324.167C47.1395 317.07 40.7656 308.65 36.5031 301.553C35.5811 300.023 34.6441 298.43 34.3181 296.479C33.9776 294.401 34.3838 292.263 34.8049 290.21C36.1469 283.479 36.5167 276.171 37.8588 269.44C29.7265 272.029 10.9952 276.94 9.45948 276.318C7.75646 275.632 6.37828 273.91 5.06084 272.23C-4.52439 259.938 -12.0068 247.551 -19.3094 232.579C-20.1694 230.817 -21.0444 228.991 -21.3543 226.892C-21.6497 224.92 -21.4115 222.887 -21.1737 220.918C-20.602 216.005 -19.3187 202.388 -18.2868 190.38L-21.1882 198.269C-27.6862 216.035 -34.9781 234.179 -29.315 254.354C-28.566 257.028 -27.8016 259.68 -27.0066 262.311C-22.9387 275.971 -18.3383 289.311 -13.2259 302.271C-8.87577 313.393 -1.0089 312.159 6.87449 313.871Z" fill="url(#paint1_linear_0_1)"/>
<path d="M89.752 91.6944C87.8927 88.6135 84.2337 89.1894 80.3716 94.0441L66.4784 113.174C65.6197 114.356 65.155 115.985 65.2232 117.659L66.5152 156.861C66.5547 158.175 66.8992 159.406 67.5039 160.404C72.3716 168.394 89.5267 206.76 94.554 206.783C99.566 206.807 108.454 179.688 112.917 179.857C113.679 179.882 117.653 180.24 121.53 181.911C125.149 183.453 126.598 176.532 125.875 171.613C122.167 163.333 117.177 152.228 114.373 145.944C105.795 126.771 99.3501 110.914 89.752 91.6944Z" fill="url(#paint2_linear_0_1)"/>
<path d="M25.159 168.551C30.237 167.516 47.1811 163.592 50.3733 161.87C56.605 158.488 62.1582 143.98 65.821 136.18C65.821 136.18 66.9494 161.673 65.6531 171.625C64.7519 178.548 61.3049 214.762 57.9731 223.433L37.8588 269.44L8.81701 228.645C6.3502 225.18 4.77447 223.35 3.89884 218.452C1.89523 207.255 -1.75895 190.734 -1.7281 181.009C-1.69726 171.284 17.1532 170.166 25.159 168.551Z" fill="url(#paint3_linear_0_1)"/>
<path d="M62.3897 114.426C60.455 111.175 59.9284 106.575 60.6182 102.468C61.1981 99.0381 66.3482 92.431 68.0187 90.3414L56.2849 94.2266C53.9789 94.9916 51.8739 96.6492 50.2141 99.0073L23.5414 136.975C23.5414 136.975 49.2662 122.224 62.3897 114.426Z" fill="url(#paint4_linear_0_1)"/>
<path d="M136.346 234.948C133.831 225.854 132.306 216.286 131.819 206.558C123.035 214.842 118.093 225.624 104.005 228.206C100.269 228.887 94.4905 229.835 90.8432 231.152C86.326 232.783 82.1298 237.403 75.3617 238.24C70.5447 238.853 58.4054 238.308 60.2156 242.088C62.0258 245.868 72.8823 253.525 75.5794 256.61C79.4133 260.929 82.7408 266.009 85.9305 271.236C87.5933 273.977 90.0756 280.62 92.992 282.435C93.7363 282.904 94.5278 283.035 95.3216 282.7C96.7107 282.134 97.8294 280.741 98.9173 279.412C109.466 266.54 121.306 255.875 134.061 247.756C135.421 246.893 136.888 245.926 137.567 244.064C137.861 243.24 137.988 242.117 138.009 240.91C137.485 238.916 136.9 236.942 136.346 234.948Z" fill="url(#paint5_linear_0_1)"/>
<path d="M139.021 245.915C138.83 244.537 138.546 243.179 138.218 241.843C137.953 243.092 137.383 244.466 136.158 245.753C132.636 249.465 119.096 255.142 104.142 273.186C94.3816 284.963 94.3588 286.551 92.21 299.571C88.6965 320.89 83.2363 328.618 82.1942 329.927C82.7583 329.845 83.2615 329.741 83.6736 329.574C90.2365 327.041 119.878 312.033 123.883 309.086C127.522 306.412 137.743 284.236 138.182 278.284C138.735 270.999 139.492 249.328 139.021 245.915Z" fill="url(#paint6_linear_0_1)"/>
<path d="M87.9782 372.31C87.1833 369.658 86.4189 367.006 85.6698 364.354C80.0219 344.179 87.3138 326.035 93.827 308.269L103.272 282.55C105.171 277.368 108.071 273.018 111.62 269.984L138.541 246.975L165.214 209.007C166.87 206.642 168.976 204.983 171.285 204.227L189.351 198.253C198.094 195.392 201.839 195.875 204.631 201.461C214.305 220.787 220.765 236.686 229.373 255.944C234.061 266.432 244.885 290.531 245.563 292.123C247.642 297.048 246.77 301.154 246.667 306.79C246.423 319.776 248.006 332.835 251.361 344.948C252.365 348.555 253.521 352.12 254.036 355.915C254.508 359.328 253.75 380.999 253.212 388.327C252.773 394.278 242.552 416.455 238.914 419.128C234.908 422.076 205.252 437.063 198.704 439.616C192.156 442.17 163.863 433.032 149.162 429.826C140.076 427.855 130.975 425.863 121.89 423.892C114.006 422.181 106.155 423.415 101.789 412.313C96.6558 399.323 92.0572 385.974 87.9782 372.31Z" fill="url(#paint7_linear_0_1)"/>
<path d="M121.875 423.871C130.96 425.842 140.061 427.834 149.147 429.805C153.88 430.844 160.027 432.484 166.402 434.167C162.139 427.07 155.766 418.65 151.503 411.553C150.581 410.023 149.644 408.43 149.318 406.479C148.978 404.401 149.384 402.263 149.805 400.21C151.147 393.479 151.517 386.171 152.859 379.44C144.727 382.029 125.995 386.94 124.459 386.318C122.756 385.632 121.378 383.91 120.061 382.23C110.476 369.938 102.993 357.551 95.6906 342.579C94.8306 340.817 93.9557 338.991 93.6457 336.892C93.3503 334.92 93.5885 332.887 93.8263 330.918C94.3981 326.005 95.6813 312.388 96.7132 300.38L93.8118 308.269C87.3138 326.035 80.0219 344.179 85.685 364.354C86.4341 367.028 87.1985 369.68 87.9934 372.311C92.0613 385.971 96.6617 399.311 101.774 412.271C106.124 423.393 113.991 422.159 121.875 423.871Z" fill="url(#paint8_linear_0_1)"/>
<path d="M204.752 201.694C202.893 198.614 199.234 199.189 195.372 204.044L181.478 223.174C180.62 224.356 180.155 225.985 180.223 227.659L181.515 266.861C181.555 268.175 181.899 269.406 182.504 270.404C187.372 278.394 204.527 316.76 209.554 316.783C214.566 316.807 223.454 289.688 227.917 289.857C228.679 289.882 232.653 290.24 236.53 291.911C240.149 293.453 241.598 286.532 240.875 281.613C237.167 273.333 232.177 262.228 229.373 255.944C220.795 236.771 214.35 220.914 204.752 201.694Z" fill="url(#paint9_linear_0_1)"/>
<path d="M140.159 278.551C145.237 277.516 162.181 273.592 165.373 271.87C171.605 268.488 177.158 253.98 180.821 246.18C180.821 246.18 181.949 271.673 180.653 281.625C179.752 288.548 176.305 324.762 172.973 333.433L152.859 379.44L123.817 338.645C121.35 335.18 119.774 333.35 118.899 328.452C116.895 317.255 113.241 300.734 113.272 291.009C113.303 281.284 132.153 280.166 140.159 278.551Z" fill="url(#paint10_linear_0_1)"/>
<path d="M177.39 224.426C175.455 221.175 174.928 216.575 175.618 212.468C176.198 209.038 181.348 202.431 183.019 200.341L171.285 204.227C168.979 204.992 166.874 206.649 165.214 209.007L138.541 246.975C138.541 246.975 164.266 232.224 177.39 224.426Z" fill="url(#paint11_linear_0_1)"/>
<path d="M511.54 290.399C510.707 288.672 509.903 286.944 509.114 285.215C503.165 272.064 509.893 259.889 515.869 247.985L524.537 230.752C526.278 227.28 529.016 224.328 532.415 222.226L558.204 206.288L583.427 180.489C584.993 178.882 587.014 177.728 589.251 177.164L606.761 172.713C615.236 170.579 618.903 170.793 621.749 174.399C631.611 186.876 638.261 197.183 647.08 209.645C651.884 216.432 662.972 232.025 663.668 233.056C665.804 236.247 665.041 238.98 665.062 242.701C665.103 251.275 666.931 259.845 670.468 267.742C671.525 270.093 672.731 272.412 673.316 274.901C673.85 277.14 673.577 291.457 673.21 296.307C672.91 300.246 663.409 315.164 659.914 317.03C656.067 319.088 627.435 329.811 621.097 331.68C614.76 333.549 586.939 328.318 572.516 326.618C563.603 325.574 554.675 324.516 545.761 323.472C538.027 322.565 530.388 323.6 525.887 316.4C520.595 307.974 515.817 299.298 511.54 290.399Z" fill="url(#paint12_linear_0_1)"/>
<path d="M545.746 323.458C554.659 324.502 563.588 325.56 572.501 326.604C577.144 327.157 583.181 328.065 589.442 328.995C585.127 324.434 578.723 319.058 574.408 314.497C573.475 313.514 572.526 312.489 572.165 311.211C571.788 309.85 572.139 308.428 572.505 307.062C573.671 302.583 573.874 297.752 575.039 293.273C567.155 295.21 548.973 298.978 547.46 298.612C545.783 298.207 544.4 297.109 543.077 296.038C533.454 288.2 525.881 280.238 518.429 270.567C517.551 269.429 516.657 268.249 516.309 266.873C515.979 265.58 516.167 264.233 516.357 262.927C516.809 259.67 517.769 250.65 518.517 242.699L515.854 247.985C509.893 259.889 503.165 272.064 509.129 285.215C509.918 286.957 510.722 288.685 511.555 290.398C515.821 299.296 520.6 307.966 525.871 316.372C530.358 323.587 538.012 322.551 545.746 323.458Z" fill="url(#paint13_linear_0_1)"/>
<path d="M621.872 174.55C619.99 172.57 616.43 173.053 612.764 176.364L599.612 189.376C598.799 190.18 598.381 191.268 598.483 192.371L600.59 218.196C600.657 219.062 601.02 219.864 601.632 220.506C606.557 225.639 624.133 250.466 629.042 250.34C633.936 250.214 642.029 232.073 646.39 232.059C647.135 232.054 651.023 232.178 654.844 233.171C658.41 234.086 659.676 229.479 658.864 226.255C655.065 220.897 649.953 213.712 647.08 209.645C638.292 197.238 631.658 186.959 621.872 174.55Z" fill="url(#paint14_linear_0_1)"/>
<path d="M560.464 227.074C565.4 226.248 581.859 223.181 584.938 221.955C590.95 219.549 596.059 209.821 599.466 204.572C599.466 204.572 601.118 221.358 600.067 227.96C599.336 232.553 596.752 256.541 593.686 262.355L575.039 293.273L545.805 267.179C543.322 264.962 541.744 263.8 540.783 260.593C538.586 253.263 534.662 242.467 534.482 236.05C534.302 229.634 552.683 228.365 560.464 227.074Z" fill="url(#paint15_linear_0_1)"/>
<path d="M595.647 190.317C593.688 188.227 593.075 185.207 593.66 182.478C594.152 180.199 599.038 175.695 600.624 174.27L589.251 177.164C587.016 177.733 584.997 178.886 583.427 180.489L558.204 206.288C558.204 206.288 583.002 195.832 595.647 190.317Z" fill="url(#paint16_linear_0_1)"/>
<path d="M670.453 267.742C667.802 261.814 666.106 255.544 665.42 249.14C657.023 254.854 652.431 262.106 638.731 264.206C635.098 264.761 629.477 265.549 625.945 266.521C621.569 267.724 617.572 270.89 610.982 271.633C606.292 272.173 594.428 272.156 596.277 274.598C598.126 277.041 608.891 281.787 611.591 283.746C615.427 286.487 618.786 289.744 622.012 293.103C623.695 294.864 626.262 299.177 629.148 300.292C629.885 300.581 630.661 300.645 631.429 300.401C632.773 299.989 633.835 299.038 634.868 298.131C644.89 289.342 656.22 281.972 668.498 276.256C669.807 275.649 671.219 274.969 671.842 273.722C672.11 273.17 672.21 272.426 672.205 271.628C671.65 270.328 671.037 269.042 670.453 267.742Z" fill="url(#paint17_linear_0_1)"/>
<path d="M673.301 274.902C673.084 273.998 672.779 273.11 672.429 272.238C672.197 273.069 671.67 273.992 670.502 274.876C667.144 277.424 654.047 281.551 639.835 293.876C630.56 301.92 630.572 302.969 628.754 311.619C625.784 325.782 620.619 331.035 619.63 331.927C620.179 331.857 620.668 331.775 621.067 331.653C627.42 329.797 656.036 319.06 659.884 317.003C663.378 315.137 672.879 300.219 673.18 296.28C673.562 291.458 673.835 277.14 673.301 274.902Z" fill="url(#paint18_linear_0_1)"/>
<path d="M427.094 297.367C426.539 296.246 426.005 295.125 425.48 294.003C421.522 285.47 426.01 277.564 429.997 269.834L435.78 258.645C436.942 256.39 438.767 254.473 441.033 253.107L458.224 242.751L475.042 225.993C476.086 224.949 477.433 224.2 478.924 223.832L490.593 220.936C496.24 219.547 498.684 219.684 500.579 222.024C507.144 230.118 511.571 236.805 517.442 244.89C520.639 249.293 528.02 259.41 528.484 260.079C529.906 262.149 529.396 263.923 529.408 266.338C529.432 271.904 530.646 277.466 532.999 282.59C533.703 284.116 534.505 285.621 534.894 287.236C535.249 288.689 535.061 297.982 534.814 301.13C534.612 303.687 528.275 313.375 525.945 314.587C523.381 315.924 504.299 322.897 500.075 324.114C495.851 325.33 477.316 321.946 467.707 320.849C461.768 320.175 455.82 319.493 449.881 318.819C444.729 318.234 439.638 318.909 436.642 314.237C433.119 308.771 429.94 303.141 427.094 297.367Z" fill="url(#paint19_linear_0_1)"/>
<path d="M449.871 318.81C455.81 319.484 461.758 320.167 467.697 320.84C470.791 321.197 474.813 321.784 478.984 322.385C476.111 319.426 471.846 315.94 468.973 312.981C468.352 312.343 467.72 311.678 467.48 310.849C467.229 309.966 467.463 309.043 467.708 308.155C468.487 305.248 468.625 302.112 469.403 299.205C464.149 300.465 452.032 302.919 451.024 302.682C449.907 302.42 448.986 301.708 448.105 301.013C441.696 295.93 436.654 290.765 431.693 284.491C431.108 283.753 430.513 282.987 430.282 282.094C430.062 281.255 430.189 280.38 430.316 279.533C430.618 277.418 431.262 271.563 431.764 266.402L429.987 269.835C426.01 277.564 421.522 285.47 425.49 294.003C426.015 295.134 426.549 296.255 427.104 297.367C429.942 303.14 433.123 308.766 436.631 314.22C439.618 318.901 444.718 318.225 449.871 318.81Z" fill="url(#paint20_linear_0_1)"/>
<path d="M500.661 222.121C499.408 220.837 497.035 221.152 494.591 223.303L485.822 231.755C485.28 232.277 485.001 232.983 485.069 233.699L486.461 250.461C486.505 251.023 486.747 251.543 487.154 251.96C490.433 255.29 502.134 271.397 505.405 271.313C508.666 271.229 514.066 259.45 516.972 259.439C517.468 259.435 520.059 259.514 522.604 260.157C524.98 260.75 525.826 257.759 525.286 255.666C522.757 252.19 519.354 247.529 517.442 244.89C511.592 236.841 507.175 230.172 500.661 222.121Z" fill="url(#paint21_linear_0_1)"/>
<path d="M459.721 256.241C463.01 255.703 473.978 253.705 476.03 252.908C480.037 251.343 483.445 245.027 485.718 241.618C485.718 241.618 486.811 252.513 486.108 256.799C485.619 259.781 483.886 275.352 481.841 279.127L469.403 299.205L449.935 282.28C448.282 280.842 447.231 280.088 446.592 278.007C445.131 273.25 442.521 266.244 442.404 262.079C442.288 257.915 454.535 257.083 459.721 256.241Z" fill="url(#paint22_linear_0_1)"/>
<path d="M483.18 232.367C481.875 231.012 481.468 229.052 481.859 227.28C482.188 225.801 485.445 222.875 486.503 221.949L478.924 223.832C477.434 224.203 476.088 224.952 475.042 225.993L458.224 242.751C458.224 242.751 474.752 235.952 483.18 232.367Z" fill="url(#paint23_linear_0_1)"/>
<path d="M532.989 282.59C531.225 278.743 530.098 274.675 529.644 270.518C524.047 274.23 520.984 278.94 511.854 280.309C509.434 280.671 505.688 281.185 503.333 281.817C500.418 282.6 497.753 284.657 493.362 285.142C490.236 285.495 482.331 285.489 483.562 287.073C484.793 288.658 491.964 291.734 493.762 293.004C496.317 294.782 498.553 296.895 500.702 299.073C501.822 300.216 503.53 303.014 505.453 303.736C505.944 303.923 506.461 303.965 506.973 303.806C507.868 303.538 508.576 302.921 509.266 302.331C515.947 296.622 523.499 291.833 531.683 288.117C532.556 287.723 533.496 287.281 533.912 286.471C534.091 286.112 534.158 285.629 534.155 285.112C533.786 284.268 533.378 283.434 532.989 282.59Z" fill="url(#paint24_linear_0_1)"/>
<path d="M534.884 287.236C534.74 286.65 534.537 286.074 534.304 285.508C534.149 286.047 533.798 286.647 533.019 287.22C530.78 288.876 522.052 291.561 512.577 299.567C506.393 304.793 506.4 305.473 505.186 311.089C503.2 320.283 499.757 323.695 499.097 324.275C499.463 324.229 499.789 324.175 500.055 324.096C504.289 322.889 523.361 315.907 525.925 314.57C528.254 313.357 534.592 303.669 534.794 301.113C535.051 297.983 535.239 288.689 534.884 287.236Z" fill="url(#paint25_linear_0_1)"/>
<rect y="282" width="657" height="84" fill="#222222"/>
<g clip-path="url(#clip1_0_1)">
<path d="M424.276 276.588C433.569 275.918 442.862 275.269 452.155 274.632C522.858 269.818 586.737 274.298 649.272 278.239L739.798 283.955C758.037 285.103 773.382 286.997 784.12 289.405L865.549 307.672L999.495 325.175C1007.84 326.261 1013.71 327.696 1016.43 329.31L1037.83 341.939C1048.09 348.053 1046.48 350.739 1026.93 352.946C959.31 360.593 903.64 365.817 836.231 372.703C799.517 376.453 715.164 385.106 709.59 385.652C692.347 387.325 677.909 386.865 658.121 387.013C612.518 387.349 566.706 388.989 524.254 391.854C511.615 392.71 499.126 393.673 485.814 394.189C473.841 394.659 397.735 394.97 371.993 394.875C351.086 394.795 272.978 388.388 263.504 385.902C253.06 383.166 199.73 362.637 190.607 358.074C181.484 353.512 212.893 333.007 223.796 322.413C230.499 315.866 237.277 309.307 243.98 302.76C249.799 297.079 245.279 291.537 284.153 287.993C329.642 283.827 376.399 280.029 424.276 276.588Z" fill="#FFA45C"/>
<path d="M244.054 302.748C237.351 309.295 230.574 315.854 223.87 322.401C220.334 325.812 214.725 330.254 208.969 334.859C233.784 331.545 263.196 326.676 288.011 323.362C293.36 322.646 298.933 321.916 305.774 321.607C313.062 321.283 320.578 321.489 327.797 321.708C351.462 322.399 377.129 322.376 400.795 323.067C391.511 317.378 373.819 304.233 375.965 303.115C378.333 301.875 384.349 300.826 390.216 299.822C433.143 292.514 476.458 286.7 528.849 280.912C535.017 280.231 541.408 279.536 548.77 279.233C555.686 278.945 562.829 279.035 569.749 279.127C587.012 279.341 634.854 279.721 677.04 279.984L649.271 278.228C586.737 274.298 522.858 269.818 452.155 274.643C442.788 275.281 433.495 275.929 424.276 276.599C376.411 280.032 329.683 283.831 284.301 287.98C245.353 291.514 249.874 297.068 244.054 302.748Z" fill="url(#paint26_linear_0_1)"/>
<path d="M754.721 310.064C758.477 313.639 772.66 325.55 778.783 327.756C790.805 332.06 841.877 335.445 869.353 337.747C869.353 337.747 779.871 339.551 744.899 339.019C720.567 338.649 593.336 337.616 562.812 335.584L400.795 323.067L543.336 300.786C555.444 298.893 561.83 297.7 579.007 296.884C618.27 295.018 676.193 291.767 710.338 291.407C744.483 291.047 748.86 304.426 754.721 310.064Z" fill="#FFC895"/>
</g>
<g clip-path="url(#clip2_0_1)">
<path d="M244.116 393.642C234.811 394.114 225.506 394.565 216.201 395.005C145.412 398.316 81.6423 392.479 19.2058 387.211L-71.1784 379.573C-89.389 378.038 -104.691 375.818 -115.375 373.182L-196.397 353.19L-329.941 332.845C-338.261 331.582 -344.105 330.023 -346.78 328.351L-367.914 315.27C-378.037 308.94 -376.371 306.289 -356.784 304.497C-289.013 298.289 -233.244 294.248 -165.705 288.797C-128.919 285.827 -44.4014 278.968 -38.8169 278.541C-21.542 277.234 -7.11721 278.001 12.6697 278.273C58.269 278.906 104.106 278.24 146.609 276.278C159.263 275.69 171.77 274.992 185.089 274.76C197.07 274.544 273.165 275.85 298.9 276.492C319.8 277.016 397.755 285.081 407.174 287.768C417.557 290.725 470.439 312.383 479.463 317.138C488.487 321.893 456.649 341.726 445.524 352.086C438.683 358.49 431.768 364.903 424.927 371.306C418.988 376.862 423.39 382.499 384.449 385.216C338.882 388.414 292.055 391.219 244.116 393.642Z" fill="#FFA45C"/>
<path d="M-355.965 304.419C-366.766 305.635 -364.712 308.262 -347.632 311.185L-280.344 321.759C-276.185 322.413 -270.461 322.801 -264.583 322.812L-126.951 323.277C-122.339 323.295 -118.022 323.093 -114.521 322.698C-86.5117 319.513 48.046 308.647 48.0855 305.066C48.1249 301.497 -47.1734 294.206 -46.6177 291.032C-46.5373 290.491 -45.3158 287.672 -39.4829 284.969C-34.0984 282.445 -58.4126 281.168 -75.6768 281.509C-104.718 283.859 -143.663 287.021 -165.705 288.797C-232.946 294.23 -288.566 298.261 -355.965 304.419Z" fill="#EB8739"/>
<path d="M146.609 276.289C114.7 277.759 81.1172 278.507 46.9648 278.51C76.1312 285.061 114.031 288.962 123.219 299.091C125.645 301.776 129.021 305.926 133.679 308.571C139.446 311.847 155.705 315 158.702 319.851C160.896 323.305 159.089 331.934 172.345 330.777C185.601 329.621 212.392 322.158 223.2 320.345C238.331 317.767 256.136 315.576 274.461 313.488C284.071 312.4 307.374 310.867 313.72 308.853C315.363 308.34 315.815 307.78 314.631 307.203C312.634 306.193 307.733 305.347 303.055 304.525C257.768 296.555 220.219 287.743 191.597 278.369C188.558 277.37 185.147 276.29 178.606 275.741C175.707 275.503 171.765 275.372 167.525 275.315C160.529 275.617 153.606 275.964 146.609 276.289Z" fill="#EEB181"/>
<path d="M185.089 274.77C180.253 274.858 175.489 275.012 170.8 275.199C175.187 275.432 180.018 275.887 184.546 276.805C197.611 279.445 217.665 289.291 281.151 300.583C322.584 307.953 328.163 308.025 373.896 310.016C448.779 313.273 475.963 317.436 480.567 318.224C480.274 317.82 479.906 317.457 479.314 317.158C470.364 312.393 417.408 290.745 407.025 287.788C397.606 285.101 319.651 277.036 298.751 276.512C273.165 275.861 197.07 274.555 185.089 274.77Z" fill="#F3DFC1"/>
<g clip-path="url(#clip3_0_1)">
<path fill-rule="evenodd" clip-rule="evenodd" d="M402.917 291.478C402.597 290.285 403.297 289.087 404.482 288.803C405.667 288.519 406.886 289.255 407.207 290.448" fill="#CC4428"/>
<path fill-rule="evenodd" clip-rule="evenodd" d="M404.806 295.206C404.77 293.979 405.734 292.986 406.961 292.986C408.187 292.986 409.211 293.98 409.248 295.206" fill="#CC4428"/>
<path fill-rule="evenodd" clip-rule="evenodd" d="M404.621 299.122C404.986 297.963 406.231 297.347 407.403 297.746C408.575 298.145 409.229 299.408 408.865 300.568" fill="#CC4428"/>
<path fill-rule="evenodd" clip-rule="evenodd" d="M390.646 304.085C389.445 303.797 388.267 304.529 388.015 305.721C387.763 306.913 388.532 308.112 389.733 308.401" fill="#CC4428"/>
<path fill-rule="evenodd" clip-rule="evenodd" d="M394.672 305.617C393.446 305.614 392.478 306.605 392.511 307.831C392.545 309.057 393.566 310.054 394.793 310.057" fill="#CC4428"/>
<path fill-rule="evenodd" clip-rule="evenodd" d="M398.582 305.326C397.433 305.722 396.851 306.983 397.281 308.144C397.712 309.305 398.993 309.925 400.142 309.529" fill="#CC4428"/>
<path fill-rule="evenodd" clip-rule="evenodd" d="M399.219 285.096L400.285 289.916C400.44 290.579 399.89 290.718 399.335 290.831C398.781 290.945 397.969 288.743 397.814 288.08L397.211 285.509" fill="#CC4428"/>
<path fill-rule="evenodd" clip-rule="evenodd" d="M398.224 278.598C400.076 278.712 401.53 280.304 401.47 282.151C401.411 283.999 399.861 285.404 398.009 285.29" fill="#E4552C"/>
<path fill-rule="evenodd" clip-rule="evenodd" d="M395.854 277.484C393.682 278.027 392.415 280.239 393.024 282.426C393.633 284.613 395.886 285.945 398.058 285.402" fill="#E4552C"/>
<path fill-rule="evenodd" clip-rule="evenodd" d="M384.092 300.638L388.938 301.573C389.605 301.711 389.729 301.157 389.828 300.599C389.926 300.042 387.702 299.29 387.036 299.153L384.45 298.62" fill="#CC4428"/>
<path fill-rule="evenodd" clip-rule="evenodd" d="M377.568 299.819C377.733 301.667 379.363 303.077 381.208 302.968C383.054 302.859 384.416 301.272 384.252 299.424" fill="#E4552C"/>
<path fill-rule="evenodd" clip-rule="evenodd" d="M376.391 297.48C376.875 295.294 379.052 293.968 381.255 294.518C383.457 295.067 384.85 297.284 384.366 299.469" fill="#E4552C"/>
<path fill-rule="evenodd" clip-rule="evenodd" d="M396.824 287.61C398.87 287.86 400.871 288.769 402.481 290.336C406.303 294.056 406.475 300.079 402.865 303.788C399.255 307.498 393.229 307.488 389.407 303.768C387.729 302.135 386.754 300.058 386.494 297.927" fill="#E4552C"/>
<path fill-rule="evenodd" clip-rule="evenodd" d="M391.371 295.909C391.795 296.322 391.815 296.992 391.413 297.404L391.201 297.622C390.8 298.034 390.13 298.033 389.706 297.62L386.715 294.709C386.29 294.295 386.271 293.626 386.672 293.214L386.885 292.996C387.286 292.584 387.955 292.584 388.38 292.998L391.371 295.909Z" fill="#E4552C"/>
<path fill-rule="evenodd" clip-rule="evenodd" d="M396.49 290.649C396.915 291.062 396.935 291.732 396.533 292.144L396.321 292.362C395.92 292.774 395.25 292.773 394.825 292.36L391.835 289.449C391.41 289.035 391.391 288.366 391.792 287.954L392.004 287.736C392.406 287.324 393.075 287.325 393.5 287.738L396.49 290.649Z" fill="#E4552C"/>
<path d="M393.461 289.366C393.771 289.047 393.757 288.529 393.428 288.209C393.099 287.889 392.581 287.889 392.271 288.207C391.96 288.526 391.975 289.044 392.304 289.364C392.632 289.684 393.151 289.685 393.461 289.366Z" fill="#434849"/>
<path fill-rule="evenodd" clip-rule="evenodd" d="M392.751 288.675C392.627 288.554 392.621 288.358 392.738 288.238C392.855 288.117 393.051 288.118 393.176 288.239C393.299 288.359 393.306 288.555 393.188 288.676C393.071 288.797 392.875 288.796 392.751 288.675Z" fill="white"/>
<path d="M388.341 294.626C388.651 294.307 388.637 293.789 388.308 293.469C387.979 293.149 387.461 293.149 387.151 293.467C386.841 293.786 386.855 294.304 387.184 294.624C387.513 294.944 388.031 294.945 388.341 294.626Z" fill="#434849"/>
<path fill-rule="evenodd" clip-rule="evenodd" d="M387.631 293.935C387.507 293.814 387.501 293.618 387.618 293.498C387.736 293.377 387.931 293.378 388.056 293.499C388.18 293.619 388.186 293.815 388.068 293.936C387.951 294.057 387.755 294.056 387.631 293.935Z" fill="white"/>
</g>
</g>
<g clip-path="url(#clip4_0_1)">
<path d="M154.971 263.406C154.104 263.001 153.096 263.423 152.718 264.351C152.654 264.506 151.521 267.13 148.866 268.619C149.658 267.42 150.285 266.252 150.777 265.169C153.113 260.023 153.027 255.668 153.022 255.485C152.996 254.473 152.209 253.67 151.262 253.704C150.316 253.732 149.57 254.575 149.597 255.588C149.6 255.695 149.696 263.426 143.328 269.841C140.795 266.612 141.107 262.134 141.112 262.068C141.194 261.062 140.501 260.173 139.561 260.08C138.617 259.988 137.784 260.731 137.698 261.74C137.677 261.992 137.235 267.726 140.66 272.142C139.021 273.351 137.08 274.459 134.785 275.394C134.552 271.96 133.76 268.188 132.022 264.3C131.323 262.736 130.678 261.218 130.083 259.751C136.236 256.837 138.932 251.796 140.11 247.925C140.116 247.903 140.122 247.881 140.129 247.86C145.856 247.757 149.191 242.89 149.972 240.146C150.248 239.177 149.739 238.148 148.834 237.853C147.928 237.557 146.972 238.1 146.697 239.068C146.635 239.278 145.25 243.781 140.927 244.167C141.296 241.47 141.12 239.536 141.109 239.423C141.012 238.417 140.174 237.689 139.233 237.789C138.293 237.891 137.607 238.79 137.7 239.796C137.703 239.829 137.989 243.141 136.813 246.913C136.465 248.029 136.025 249.063 135.504 250.021C133.469 248.413 132.404 244.123 132.169 242.517C132.025 241.517 131.152 240.83 130.216 240.984C129.281 241.137 128.639 242.073 128.782 243.075C128.9 243.9 129.899 250.13 133.428 252.949C132.145 254.352 130.587 255.492 128.761 256.364C124.205 244.21 123.259 236.301 123.249 236.206C123.135 235.202 122.283 234.486 121.343 234.606C120.403 234.727 119.733 235.64 119.846 236.645C119.901 237.132 121.27 248.748 128.93 265.884C131.237 271.044 131.949 276.604 131.048 282.41C131.031 282.515 131.015 282.619 130.997 282.722C130.954 282.578 130.909 282.433 130.863 282.287C129.5 277.986 126.428 271.801 119.53 266.763C118.992 266.37 118.476 265.954 117.975 265.522C119.98 263.627 121.029 260.848 121.029 257.371C121.029 254.36 120.223 251.854 120.189 251.749C119.878 250.792 118.9 250.288 118.007 250.621C117.113 250.954 116.642 251.999 116.953 252.956C116.977 253.028 119.148 259.875 115.443 262.999C112.796 259.939 110.847 256.17 109.626 251.736C108.273 246.823 108.371 242.897 108.372 242.861C108.405 241.848 107.665 240.999 106.719 240.964C105.772 240.925 104.98 241.721 104.947 242.733C104.941 242.913 104.822 247.189 106.303 252.643C108.275 259.905 112.181 265.835 117.598 269.792C117.626 269.812 117.652 269.833 117.679 269.854C116.338 269.817 114.731 269.655 113.055 269.222C107.467 267.778 103.871 264.082 102.366 258.235C102.115 257.259 101.171 256.686 100.259 256.954C99.3464 257.223 98.8106 258.233 99.062 259.21C100.897 266.337 105.457 271.032 112.25 272.787C114.498 273.367 116.63 273.53 118.309 273.53C119.935 273.53 121.135 273.378 121.611 273.306C123.404 275.195 124.878 277.283 126.025 279.557C123.53 280.21 116.401 281.457 110.737 276.422C110.01 275.775 108.929 275.882 108.324 276.661C107.72 277.44 107.82 278.596 108.548 279.243C112.686 282.923 117.337 283.882 121.062 283.882C124.003 283.882 126.366 283.284 127.445 282.955C127.485 283.072 127.529 283.188 127.567 283.307C128.884 287.375 128.76 290.445 128.758 290.469C128.713 291.33 129.233 292.108 130.009 292.339C130.162 292.385 130.317 292.407 130.469 292.407C131.091 292.407 131.681 292.043 131.983 291.432C132.044 291.309 132.418 290.537 132.876 289.25C142.794 288.874 149.207 282.651 149.496 282.365C150.19 281.678 150.232 280.522 149.593 279.778C148.954 279.034 147.87 278.985 147.173 279.668C147.115 279.725 141.917 284.72 133.967 285.496C134.374 283.723 134.713 281.62 134.824 279.28C139.132 277.704 142.399 275.578 144.876 273.297C144.891 273.297 144.906 273.297 144.921 273.297C152.728 273.297 155.732 266.131 155.857 265.824C156.235 264.894 155.839 263.81 154.971 263.406Z" fill="#A91523"/>
<path d="M154.971 263.406C154.104 263.001 153.096 263.423 152.718 264.351C152.654 264.506 151.521 267.13 148.866 268.619C149.658 267.42 150.285 266.252 150.777 265.169C153.113 260.023 153.027 255.668 153.022 255.485C152.996 254.473 152.209 253.67 151.262 253.704C150.316 253.732 149.57 254.575 149.597 255.588C149.6 255.695 149.696 263.426 143.328 269.841C140.795 266.612 141.107 262.134 141.112 262.068C141.194 261.062 140.501 260.173 139.561 260.08C138.617 259.988 137.784 260.731 137.698 261.74C137.677 261.992 137.235 267.726 140.66 272.142C139.021 273.351 137.08 274.459 134.785 275.394C134.552 271.96 133.76 268.188 132.022 264.3C131.323 262.736 130.678 261.218 130.083 259.751C136.236 256.837 138.932 251.796 140.11 247.925C140.116 247.903 140.122 247.881 140.129 247.86C145.856 247.757 149.191 242.89 149.972 240.146C150.248 239.177 149.739 238.148 148.834 237.853C147.928 237.557 146.972 238.1 146.697 239.068C146.635 239.278 145.25 243.781 140.927 244.167C141.296 241.47 141.12 239.536 141.109 239.423C141.012 238.417 140.174 237.689 139.233 237.789C138.293 237.891 137.607 238.79 137.7 239.796C137.703 239.829 137.989 243.141 136.813 246.913C136.465 248.029 136.025 249.063 135.504 250.021C133.469 248.413 132.404 244.123 132.169 242.517C132.025 241.517 131.152 240.83 130.216 240.984C129.281 241.137 128.639 242.073 128.782 243.075C128.9 243.9 129.899 250.13 133.428 252.949C132.145 254.352 130.587 255.492 128.761 256.364C128.209 254.892 127.71 253.482 127.259 252.14V261.999C127.78 263.259 128.336 264.555 128.93 265.884C131.237 271.044 131.949 276.604 131.048 282.41C131.031 282.515 131.015 282.619 130.998 282.722C130.954 282.578 130.91 282.433 130.863 282.287C130.18 280.131 129.067 277.503 127.259 274.782V283.01C127.324 282.991 127.388 282.972 127.445 282.955C127.485 283.072 127.529 283.188 127.567 283.307C128.884 287.375 128.76 290.445 128.758 290.469C128.713 291.33 129.233 292.108 130.009 292.339C130.162 292.385 130.317 292.407 130.469 292.407C131.091 292.407 131.681 292.043 131.983 291.432C132.044 291.309 132.418 290.537 132.876 289.25C142.794 288.874 149.207 282.651 149.496 282.365C150.19 281.678 150.232 280.522 149.593 279.778C148.954 279.034 147.87 278.985 147.173 279.668C147.115 279.725 141.917 284.72 133.967 285.496C134.374 283.723 134.713 281.62 134.824 279.28C139.132 277.704 142.399 275.578 144.876 273.297C144.891 273.297 144.906 273.297 144.921 273.297C152.728 273.297 155.732 266.131 155.857 265.824C156.235 264.894 155.839 263.81 154.971 263.406Z" fill="#8E1325"/>
</g>
<g clip-path="url(#clip5_0_1)">
<path d="M530.971 270.406C530.104 270.001 529.096 270.423 528.718 271.351C528.654 271.506 527.521 274.13 524.866 275.619C525.658 274.42 526.285 273.252 526.777 272.169C529.113 267.023 529.027 262.668 529.022 262.485C528.996 261.473 528.209 260.67 527.262 260.704C526.316 260.732 525.57 261.575 525.597 262.588C525.6 262.695 525.696 270.426 519.328 276.841C516.795 273.612 517.107 269.134 517.112 269.068C517.194 268.062 516.501 267.173 515.561 267.08C514.617 266.988 513.784 267.731 513.698 268.74C513.677 268.992 513.235 274.726 516.66 279.142C515.021 280.351 513.08 281.459 510.785 282.394C510.552 278.96 509.76 275.188 508.022 271.3C507.323 269.736 506.678 268.218 506.083 266.751C512.236 263.837 514.932 258.796 516.11 254.925C516.116 254.903 516.122 254.881 516.129 254.86C521.856 254.757 525.191 249.89 525.972 247.146C526.248 246.177 525.739 245.148 524.834 244.853C523.928 244.557 522.972 245.1 522.697 246.068C522.635 246.278 521.25 250.781 516.927 251.167C517.296 248.47 517.12 246.536 517.109 246.423C517.012 245.417 516.174 244.689 515.233 244.789C514.293 244.891 513.607 245.79 513.7 246.796C513.703 246.829 513.989 250.141 512.813 253.913C512.465 255.029 512.025 256.063 511.504 257.021C509.469 255.413 508.404 251.123 508.169 249.517C508.025 248.517 507.152 247.83 506.216 247.984C505.281 248.137 504.639 249.073 504.782 250.075C504.9 250.9 505.899 257.13 509.428 259.949C508.145 261.352 506.587 262.492 504.761 263.364C500.205 251.21 499.259 243.301 499.249 243.206C499.135 242.202 498.283 241.486 497.343 241.606C496.403 241.727 495.733 242.64 495.846 243.645C495.901 244.132 497.27 255.748 504.93 272.884C507.237 278.044 507.949 283.604 507.048 289.41C507.031 289.515 507.015 289.619 506.997 289.722C506.954 289.578 506.909 289.433 506.863 289.287C505.5 284.986 502.428 278.801 495.53 273.763C494.992 273.37 494.476 272.954 493.975 272.522C495.98 270.627 497.029 267.848 497.029 264.371C497.029 261.36 496.223 258.854 496.189 258.749C495.878 257.792 494.9 257.288 494.007 257.621C493.113 257.954 492.642 258.999 492.953 259.956C492.977 260.028 495.148 266.875 491.443 269.999C488.796 266.939 486.847 263.17 485.626 258.736C484.273 253.823 484.371 249.897 484.372 249.861C484.405 248.848 483.665 247.999 482.719 247.964C481.772 247.925 480.98 248.721 480.947 249.733C480.941 249.913 480.822 254.189 482.303 259.643C484.275 266.905 488.181 272.835 493.598 276.792C493.626 276.812 493.652 276.833 493.679 276.854C492.338 276.817 490.731 276.655 489.055 276.222C483.467 274.778 479.871 271.082 478.366 265.235C478.115 264.259 477.171 263.686 476.259 263.954C475.346 264.223 474.811 265.233 475.062 266.21C476.897 273.337 481.457 278.032 488.25 279.787C490.498 280.367 492.63 280.53 494.309 280.53C495.935 280.53 497.135 280.378 497.611 280.306C499.404 282.195 500.878 284.283 502.025 286.557C499.53 287.21 492.401 288.457 486.737 283.422C486.01 282.775 484.929 282.882 484.324 283.661C483.72 284.44 483.82 285.596 484.548 286.243C488.686 289.923 493.337 290.882 497.062 290.882C500.003 290.882 502.366 290.284 503.445 289.955C503.485 290.072 503.529 290.188 503.567 290.307C504.884 294.375 504.76 297.445 504.758 297.469C504.713 298.33 505.233 299.108 506.009 299.339C506.162 299.385 506.317 299.407 506.469 299.407C507.091 299.407 507.681 299.043 507.983 298.432C508.044 298.309 508.418 297.537 508.876 296.25C518.794 295.874 525.207 289.651 525.496 289.365C526.19 288.678 526.232 287.522 525.593 286.778C524.954 286.034 523.87 285.985 523.173 286.668C523.115 286.725 517.917 291.72 509.967 292.496C510.374 290.723 510.713 288.62 510.824 286.28C515.132 284.704 518.399 282.578 520.876 280.297C520.891 280.297 520.906 280.297 520.921 280.297C528.728 280.297 531.732 273.131 531.857 272.824C532.235 271.894 531.839 270.81 530.971 270.406Z" fill="#A91523"/>
<path d="M530.971 270.406C530.104 270.001 529.096 270.423 528.718 271.351C528.654 271.506 527.521 274.13 524.866 275.619C525.658 274.42 526.285 273.252 526.777 272.169C529.113 267.023 529.027 262.668 529.022 262.485C528.996 261.473 528.209 260.67 527.262 260.704C526.316 260.732 525.57 261.575 525.597 262.588C525.6 262.695 525.696 270.426 519.328 276.841C516.795 273.612 517.107 269.134 517.112 269.068C517.194 268.062 516.501 267.173 515.561 267.08C514.617 266.988 513.784 267.731 513.698 268.74C513.677 268.992 513.235 274.726 516.66 279.142C515.021 280.351 513.08 281.459 510.785 282.394C510.552 278.96 509.76 275.188 508.022 271.3C507.323 269.736 506.678 268.218 506.083 266.751C512.236 263.837 514.932 258.796 516.11 254.925C516.116 254.903 516.122 254.881 516.129 254.86C521.856 254.757 525.191 249.89 525.972 247.146C526.248 246.177 525.739 245.148 524.834 244.853C523.928 244.557 522.972 245.1 522.697 246.068C522.635 246.278 521.25 250.781 516.927 251.167C517.296 248.47 517.12 246.536 517.109 246.423C517.012 245.417 516.174 244.689 515.233 244.789C514.293 244.891 513.607 245.79 513.7 246.796C513.703 246.829 513.989 250.141 512.813 253.913C512.465 255.029 512.025 256.063 511.504 257.021C509.469 255.413 508.404 251.123 508.169 249.517C508.025 248.517 507.152 247.83 506.216 247.984C505.281 248.137 504.639 249.073 504.782 250.075C504.9 250.9 505.899 257.13 509.428 259.949C508.145 261.352 506.587 262.492 504.761 263.364C504.209 261.892 503.71 260.482 503.259 259.14V268.999C503.78 270.259 504.336 271.555 504.93 272.884C507.237 278.044 507.949 283.604 507.048 289.41C507.031 289.515 507.015 289.619 506.998 289.722C506.954 289.578 506.91 289.433 506.863 289.287C506.18 287.131 505.067 284.503 503.259 281.782V290.01C503.324 289.991 503.388 289.972 503.445 289.955C503.485 290.072 503.529 290.188 503.567 290.307C504.884 294.375 504.76 297.445 504.758 297.469C504.713 298.33 505.233 299.108 506.009 299.339C506.162 299.385 506.317 299.407 506.469 299.407C507.091 299.407 507.681 299.043 507.983 298.432C508.044 298.309 508.418 297.537 508.876 296.25C518.794 295.874 525.207 289.651 525.496 289.365C526.19 288.678 526.232 287.522 525.593 286.778C524.954 286.034 523.87 285.985 523.173 286.668C523.115 286.725 517.917 291.72 509.967 292.496C510.374 290.723 510.713 288.62 510.824 286.28C515.132 284.704 518.399 282.578 520.876 280.297C520.891 280.297 520.906 280.297 520.921 280.297C528.728 280.297 531.732 273.131 531.857 272.824C532.235 271.894 531.839 270.81 530.971 270.406Z" fill="#8E1325"/>
</g>
<g clip-path="url(#clip6_0_1)">
<path fill-rule="evenodd" clip-rule="evenodd" d="M202.943 301.145C204.065 300.629 205.364 301.118 205.842 302.239C206.322 303.359 205.801 304.685 204.679 305.201" fill="#CC4428"/>
<path fill-rule="evenodd" clip-rule="evenodd" d="M199.585 303.633C200.788 303.391 201.929 304.175 202.135 305.384C202.34 306.594 201.532 307.77 200.33 308.012" fill="#CC4428"/>
<path fill-rule="evenodd" clip-rule="evenodd" d="M195.693 304.107C196.897 304.272 197.713 305.396 197.517 306.619C197.32 307.841 196.184 308.697 194.98 308.533" fill="#CC4428"/>
<path fill-rule="evenodd" clip-rule="evenodd" d="M188.456 291.163C188.539 289.931 187.619 288.892 186.401 288.844C185.184 288.795 184.131 289.754 184.048 290.987" fill="#CC4428"/>
<path fill-rule="evenodd" clip-rule="evenodd" d="M187.621 295.389C187.419 294.18 186.279 293.392 185.076 293.63C183.873 293.869 183.062 295.043 183.264 296.253" fill="#CC4428"/>
<path fill-rule="evenodd" clip-rule="evenodd" d="M188.564 299.195C187.981 298.129 186.639 297.766 185.567 298.385C184.496 299.005 184.099 300.371 184.682 301.438" fill="#CC4428"/>
<path fill-rule="evenodd" clip-rule="evenodd" d="M208.613 296.428L204.041 298.287C203.414 298.552 203.184 298.033 202.979 297.505C202.774 296.978 204.809 295.808 205.437 295.544L207.87 294.518" fill="#CC4428"/>
<path fill-rule="evenodd" clip-rule="evenodd" d="M214.853 294.357C215.051 296.202 213.726 297.902 211.895 298.154C210.063 298.405 208.418 297.113 208.22 295.268" fill="#E4552C"/>
<path fill-rule="evenodd" clip-rule="evenodd" d="M215.554 291.833C214.654 289.784 212.261 288.906 210.207 289.873C208.153 290.84 207.218 293.285 208.117 295.335" fill="#E4552C"/>
<path fill-rule="evenodd" clip-rule="evenodd" d="M190.754 284.123L190.645 289.057C190.621 289.738 191.188 289.768 191.754 289.771C192.32 289.775 192.689 287.457 192.712 286.776L192.803 284.138" fill="#CC4428"/>
<path fill-rule="evenodd" clip-rule="evenodd" d="M190.467 277.555C188.673 278.028 187.556 279.871 187.973 281.672C188.391 283.473 190.183 284.55 191.978 284.077" fill="#E4552C"/>
<path fill-rule="evenodd" clip-rule="evenodd" d="M192.576 276.002C194.811 276.112 196.484 278.036 196.312 280.3C196.14 282.563 194.188 284.308 191.953 284.198" fill="#E4552C"/>
<path fill-rule="evenodd" clip-rule="evenodd" d="M205.734 294.489C205.831 296.548 205.271 298.673 203.996 300.523C200.97 304.915 195.061 306.096 190.798 303.159C186.536 300.222 185.534 294.28 188.56 289.888C189.889 287.96 191.773 286.65 193.829 286.037" fill="#E4552C"/>
<path fill-rule="evenodd" clip-rule="evenodd" d="M196.638 290.506C196.301 290.994 195.644 291.125 195.171 290.799L194.92 290.626C194.446 290.299 194.335 289.639 194.672 289.151L197.039 285.714C197.376 285.226 198.032 285.095 198.506 285.421L198.756 285.594C199.23 285.921 199.342 286.581 199.005 287.069L196.638 290.506Z" fill="#E4552C"/>
<path fill-rule="evenodd" clip-rule="evenodd" d="M202.682 294.67C202.346 295.158 201.689 295.29 201.215 294.963L200.964 294.79C200.491 294.464 200.38 293.804 200.716 293.316L203.084 289.879C203.42 289.391 204.077 289.26 204.55 289.586L204.801 289.759C205.275 290.085 205.386 290.745 205.05 291.233L202.682 294.67Z" fill="#E4552C"/>
<path d="M203.439 291.468C203.805 291.721 204.313 291.619 204.573 291.242C204.833 290.864 204.747 290.353 204.381 290.101C204.014 289.848 203.506 289.95 203.246 290.327C202.986 290.705 203.072 291.216 203.439 291.468Z" fill="#434849"/>
<path fill-rule="evenodd" clip-rule="evenodd" d="M204 290.653C204.099 290.51 204.291 290.471 204.429 290.566C204.568 290.662 204.6 290.855 204.502 290.998C204.404 291.14 204.212 291.179 204.073 291.084C203.934 290.988 203.902 290.795 204 290.653Z" fill="white"/>
<path d="M197.394 287.304C197.761 287.556 198.269 287.455 198.529 287.077C198.789 286.699 198.703 286.189 198.336 285.936C197.97 285.684 197.462 285.785 197.202 286.163C196.941 286.54 197.028 287.051 197.394 287.304Z" fill="#434849"/>
<path fill-rule="evenodd" clip-rule="evenodd" d="M197.956 286.488C198.054 286.345 198.246 286.306 198.385 286.402C198.524 286.497 198.556 286.69 198.457 286.833C198.359 286.976 198.167 287.015 198.028 286.919C197.89 286.824 197.858 286.631 197.956 286.488Z" fill="white"/>
</g>
<path d="M462.517 196.557C460.748 195.576 458.449 193.684 456.53 190.052L456.528 190.053C456.528 190.053 456.528 190.052 456.528 190.052C456.528 184.148 452.855 179.182 447.987 178.505L437.223 177.007C436.871 176.958 436.532 177.183 436.378 177.567C436.225 177.951 436.289 178.411 436.541 178.712C438.121 180.608 439.279 183.489 439.738 186.85C438.163 184.361 435.197 182.234 433.134 182.24C433.077 182.239 433.026 182.282 433.008 182.346C432.989 182.411 433.006 182.482 433.05 182.524C433.883 183.31 434.423 184.526 434.425 185.9C434.427 187.085 434.03 188.154 433.386 188.931C433.139 189.229 433.002 189.632 433.002 190.052C433.003 190.472 433.142 190.875 433.39 191.171C434.035 191.944 434.435 193.011 434.438 194.196C434.44 195.569 433.906 196.788 433.077 197.579C433.032 197.621 433.015 197.692 433.034 197.756C433.052 197.821 433.102 197.864 433.16 197.864C435.219 197.858 438.171 195.724 439.74 193.233C439.283 196.602 438.124 199.492 436.54 201.391C436.289 201.692 436.224 202.152 436.378 202.537C436.532 202.922 436.871 203.146 437.223 203.097L444.713 202.054C444.893 203.618 444.567 205.241 444.299 206.21C444.244 206.412 444.282 206.636 444.398 206.795C444.515 206.955 444.693 207.029 444.867 206.99C446.858 206.531 448.727 203.412 449.801 201.265C452.203 200.805 457.485 199.746 462.349 198.446C462.697 198.353 462.957 198.002 462.995 197.574C463.033 197.147 462.841 196.737 462.517 196.557Z" fill="#FF5924"/>
<path d="M446.631 197.801C447.194 197.648 445.507 196.366 444.661 194.831C443.815 193.296 443.513 192 443.342 190.634C443.174 189.27 443.33 187.798 443.447 186.888C443.54 186.15 443.951 184.799 443.841 184.557C443.733 184.314 443.169 184.331 442.78 184.902C442.391 185.474 441.557 186.725 441.147 189.365C440.956 190.592 441.233 193.436 442.976 195.404C444.48 197.1 445.975 197.979 446.631 197.801Z" fill="#2C2F30"/>
<path d="M452.038 197.258C452.72 197.044 451.611 196.048 451.088 195.253C450.27 194.013 448.613 191.787 448.29 189.299C447.968 186.811 448.78 184.882 449.019 184.285C449.265 183.662 449.655 182.766 449.777 182.509C449.9 182.252 449.863 181.974 449.695 181.955C449.307 181.914 448.708 182.303 448.116 182.854C447.723 183.218 446.99 183.94 446.292 186.035C445.91 187.183 445.649 189.152 446.244 191.244C446.952 193.728 448.635 195.285 449.237 195.843C450.128 196.67 451.243 197.508 452.038 197.258Z" fill="#2C2F30"/>
<circle cx="452.5" cy="187.5" r="1.5" fill="white"/>
<circle cx="452.5" cy="187.5" r="0.5" fill="black"/>
<path d="M543.517 136.557C541.748 135.576 539.449 133.684 537.53 130.052L537.528 130.053C537.528 130.053 537.528 130.052 537.528 130.052C537.528 124.148 533.855 119.182 528.987 118.505L518.223 117.007C517.871 116.958 517.532 117.183 517.378 117.567C517.225 117.951 517.289 118.411 517.541 118.712C519.121 120.608 520.279 123.489 520.738 126.85C519.163 124.361 516.197 122.234 514.134 122.24C514.077 122.239 514.026 122.282 514.008 122.346C513.989 122.411 514.006 122.482 514.05 122.524C514.883 123.31 515.423 124.526 515.425 125.9C515.427 127.085 515.03 128.154 514.386 128.931C514.139 129.229 514.002 129.632 514.002 130.052C514.003 130.472 514.142 130.875 514.39 131.171C515.035 131.944 515.435 133.011 515.438 134.196C515.44 135.569 514.906 136.788 514.077 137.579C514.032 137.621 514.015 137.692 514.034 137.756C514.052 137.821 514.102 137.864 514.16 137.864C516.219 137.858 519.171 135.724 520.74 133.233C520.283 136.602 519.124 139.492 517.54 141.391C517.289 141.692 517.224 142.152 517.378 142.537C517.532 142.922 517.871 143.146 518.223 143.097L525.713 142.054C525.893 143.618 525.567 145.241 525.299 146.21C525.244 146.412 525.282 146.636 525.398 146.795C525.515 146.955 525.693 147.029 525.867 146.99C527.858 146.531 529.727 143.412 530.801 141.265C533.203 140.805 538.485 139.746 543.349 138.446C543.697 138.353 543.957 138.002 543.995 137.574C544.033 137.147 543.841 136.737 543.517 136.557Z" fill="#FF5924"/>
<path d="M527.631 137.801C528.194 137.648 526.507 136.366 525.661 134.831C524.815 133.296 524.513 132 524.342 130.634C524.174 129.27 524.33 127.798 524.447 126.888C524.54 126.15 524.951 124.799 524.841 124.557C524.733 124.314 524.169 124.331 523.78 124.902C523.391 125.474 522.557 126.725 522.147 129.365C521.956 130.592 522.233 133.436 523.976 135.404C525.48 137.1 526.975 137.979 527.631 137.801Z" fill="#2C2F30"/>
<path d="M533.038 137.258C533.72 137.044 532.611 136.048 532.088 135.253C531.27 134.013 529.613 131.787 529.29 129.299C528.968 126.811 529.78 124.882 530.019 124.285C530.265 123.662 530.655 122.766 530.777 122.509C530.9 122.252 530.863 121.974 530.695 121.955C530.307 121.914 529.708 122.303 529.116 122.854C528.723 123.218 527.99 123.94 527.292 126.035C526.91 127.183 526.649 129.152 527.244 131.244C527.952 133.728 529.635 135.285 530.237 135.843C531.128 136.67 532.243 137.508 533.038 137.258Z" fill="#2C2F30"/>
<circle cx="533.5" cy="127.5" r="1.5" fill="white"/>
<circle cx="533.5" cy="127.5" r="0.5" fill="black"/>
<path d="M162.278 145.519L162.687 141.559L161.484 136.103C161.484 136.103 162.366 135.134 162.862 134.9C163.359 134.666 163.919 134.534 163.919 134.534C163.919 134.534 165.209 134.316 166.059 134.284C166.909 134.256 167.878 134.403 167.85 133.991C167.822 133.581 164.009 132.934 161.925 132.875C159.844 132.816 152.891 133.138 147.875 135.572C142.859 138.006 141.541 140.181 141.541 140.181L139.869 143.497L138.197 144.172C138.197 144.172 136.672 146.725 136.172 148.191C135.672 149.656 135.147 150.8 134.881 151.094C134.619 151.388 133.297 152.412 133.297 152.619C133.297 152.825 134.647 153.588 134.647 153.791C134.647 153.997 133.562 154.259 133.562 154.494C133.562 154.728 135.469 156.869 138.344 159.041C141.219 161.213 144.766 162.794 147.378 163.441C149.987 164.084 153.478 164.378 153.625 164.263C153.772 164.144 150.897 161.888 150.897 161.888C150.897 161.888 153.653 163.059 155.384 163.266C157.116 163.472 157.387 163.484 159.081 163.419C160.775 163.353 163.509 160.947 163.509 160.947L164.975 156.106L164.316 152.947C164.316 152.947 163.428 151.525 163.391 151.231C163.353 150.937 163.756 151.163 164.116 151.253C164.556 151.363 165.581 152.075 166.228 152.75C166.625 153.166 167.847 154.469 168.353 155.016C168.594 155.278 169.025 155.178 169.131 154.841L169.609 152.091L169.347 143.409L168.353 139.994C168.241 139.7 167.844 139.647 167.659 139.906C166.956 140.897 165.425 143.244 164.975 143.822C164.359 144.613 163.306 145.809 162.709 146.022C162.356 146.147 162.225 146.088 162.225 146.088L162.278 145.519Z" fill="#FFB800"/>
<path d="M158.641 163.353C158.641 163.353 163.153 162.462 163.941 158.119C164.556 154.731 163.281 151.213 163.281 151.213C163.281 151.213 163.328 150.731 163.853 151.388C164.822 152.597 166.625 156.6 164.316 160.669C162.362 164.109 158.772 163.484 158.553 163.484C158.334 163.484 158.641 163.353 158.641 163.353Z" fill="#B5D219"/>
<path d="M163.919 134.534C163.919 134.534 161.169 134.338 161.059 136.866C160.972 138.869 162.072 140.275 162.028 142.431C161.984 144.588 161.747 146.147 162.225 146.081C162.556 146.038 163.281 145.003 163.303 142.781C163.325 140.559 161.831 138.263 161.872 136.841C161.919 135.372 163.919 134.534 163.919 134.534Z" fill="#B5D219"/>
<path d="M167.925 139.728C167.466 139.909 167.947 141.312 168.1 141.753C168.253 142.194 168.706 144.591 168.738 148.109C168.759 150.637 168.519 153.103 168.406 153.653C168.294 154.203 168.053 155.037 168.647 155.172C169.241 155.306 169.831 154.072 170.166 151.981C170.428 150.331 170.406 148.834 170.428 147.275C170.475 143.994 169.681 141.884 169.394 141.181C169.113 140.475 168.541 139.484 167.925 139.728Z" fill="#2C2F30"/>
<path d="M156.294 140.269C155.766 140.328 156.644 142.275 156.881 143.7C157.262 145.988 157.262 147.453 157.212 149.338C157.166 151.084 156.734 154.109 155.366 156.684C155.066 157.25 154.881 157.741 155.3 157.784C156.134 157.872 157.706 155.841 158.512 153.65C159.419 151.184 159.591 148.988 159.259 146.369C158.994 144.263 158.503 142.872 158.175 142.147C157.875 141.491 157.203 140.169 156.294 140.269Z" fill="#2C2F30"/>
<path d="M148.984 136.275C148.172 136.503 149.316 138.188 149.813 139.478C150.591 141.494 152.203 145.138 152.247 148.988C152.291 152.838 151.103 155.669 150.75 156.547C150.384 157.463 149.819 158.775 149.644 159.15C149.469 159.525 149.475 159.956 149.666 160.009C150.106 160.128 150.847 159.622 151.6 158.866C152.1 158.366 153.038 157.369 154.116 154.269C154.706 152.569 155.266 149.597 154.856 146.312C154.369 142.412 152.638 139.788 152.019 138.847C151.103 137.453 149.931 136.009 148.984 136.275Z" fill="#2C2F30"/>
<path d="M143.881 140.013C143.222 140.194 145.091 142.131 145.972 144.375C146.853 146.619 147.122 148.488 147.234 150.447C147.344 152.403 147.072 154.494 146.881 155.784C146.728 156.831 146.169 158.731 146.281 159.084C146.391 159.438 147.044 159.45 147.528 158.659C148.012 157.869 149.053 156.138 149.691 152.397C149.987 150.659 149.844 146.584 147.953 143.666C146.322 141.15 144.65 139.8 143.881 140.013Z" fill="#2C2F30"/>
<path d="M138.2 144.172C138.2 144.172 139.431 142.413 139.959 141.766C140.487 141.122 141.925 139.653 141.925 139.653C141.925 139.653 141.984 143.847 142.131 144.963C142.278 146.078 142.775 148.541 143.334 149.831C143.625 150.503 144.181 152.144 144.097 152.822C143.95 154.025 142.597 155.831 142.016 155.9C140.784 156.047 139.581 153.706 139.025 152.175C138.228 150.006 137.612 146.047 138.2 144.172Z" fill="#2C2F30"/>
<path d="M142.672 151.606C142.703 152.447 142.019 152.984 141.294 152.984C140.569 152.984 140.019 152.291 140.019 151.562C140.019 150.834 140.634 150.287 141.359 150.287C142.084 150.287 142.641 150.812 142.672 151.606Z" fill="#FFB805"/>
<path d="M141.397 151.575C141.206 151.794 140.672 151.791 140.481 151.566C140.291 151.341 140.316 150.884 140.591 150.653C140.866 150.419 141.25 150.375 141.478 150.722C141.638 150.969 141.631 151.303 141.397 151.575Z" fill="#FFEDC7"/>
<path d="M256.278 174.519L256.687 170.559L255.484 165.103C255.484 165.103 256.366 164.134 256.862 163.9C257.359 163.666 257.919 163.534 257.919 163.534C257.919 163.534 259.209 163.316 260.059 163.284C260.909 163.256 261.878 163.403 261.85 162.991C261.822 162.581 258.009 161.934 255.925 161.875C253.844 161.816 246.891 162.138 241.875 164.572C236.859 167.006 235.541 169.181 235.541 169.181L233.869 172.497L232.197 173.172C232.197 173.172 230.672 175.725 230.172 177.191C229.672 178.656 229.147 179.8 228.881 180.094C228.619 180.388 227.297 181.412 227.297 181.619C227.297 181.825 228.647 182.588 228.647 182.791C228.647 182.997 227.562 183.259 227.562 183.494C227.562 183.728 229.469 185.869 232.344 188.041C235.219 190.213 238.766 191.794 241.378 192.441C243.987 193.084 247.478 193.378 247.625 193.263C247.772 193.144 244.897 190.888 244.897 190.888C244.897 190.888 247.653 192.059 249.384 192.266C251.116 192.472 251.387 192.484 253.081 192.419C254.775 192.353 257.509 189.947 257.509 189.947L258.975 185.106L258.316 181.947C258.316 181.947 257.428 180.525 257.391 180.231C257.353 179.937 257.756 180.163 258.116 180.253C258.556 180.363 259.581 181.075 260.228 181.75C260.625 182.166 261.847 183.469 262.353 184.016C262.594 184.278 263.025 184.178 263.131 183.841L263.609 181.091L263.347 172.409L262.353 168.994C262.241 168.7 261.844 168.647 261.659 168.906C260.956 169.897 259.425 172.244 258.975 172.822C258.359 173.613 257.306 174.809 256.709 175.022C256.356 175.147 256.225 175.088 256.225 175.088L256.278 174.519Z" fill="#FFB800"/>
<path d="M252.641 192.353C252.641 192.353 257.153 191.462 257.941 187.119C258.556 183.731 257.281 180.213 257.281 180.213C257.281 180.213 257.328 179.731 257.853 180.388C258.822 181.597 260.625 185.6 258.316 189.669C256.362 193.109 252.772 192.484 252.553 192.484C252.334 192.484 252.641 192.353 252.641 192.353Z" fill="#B5D219"/>
<path d="M257.919 163.534C257.919 163.534 255.169 163.338 255.059 165.866C254.972 167.869 256.072 169.275 256.028 171.431C255.984 173.588 255.747 175.147 256.225 175.081C256.556 175.038 257.281 174.003 257.303 171.781C257.325 169.559 255.831 167.263 255.872 165.841C255.919 164.372 257.919 163.534 257.919 163.534Z" fill="#B5D219"/>
<path d="M261.925 168.728C261.466 168.909 261.947 170.312 262.1 170.753C262.253 171.194 262.706 173.591 262.738 177.109C262.759 179.637 262.519 182.103 262.406 182.653C262.294 183.203 262.053 184.037 262.647 184.172C263.241 184.306 263.831 183.072 264.166 180.981C264.428 179.331 264.406 177.834 264.428 176.275C264.475 172.994 263.681 170.884 263.394 170.181C263.113 169.475 262.541 168.484 261.925 168.728Z" fill="#2C2F30"/>
<path d="M250.294 169.269C249.766 169.328 250.644 171.275 250.881 172.7C251.262 174.988 251.262 176.453 251.212 178.338C251.166 180.084 250.734 183.109 249.366 185.684C249.066 186.25 248.881 186.741 249.3 186.784C250.134 186.872 251.706 184.841 252.512 182.65C253.419 180.184 253.591 177.988 253.259 175.369C252.994 173.263 252.503 171.872 252.175 171.147C251.875 170.491 251.203 169.169 250.294 169.269Z" fill="#2C2F30"/>
<path d="M242.984 165.275C242.172 165.503 243.316 167.188 243.813 168.478C244.591 170.494 246.203 174.138 246.247 177.988C246.291 181.838 245.103 184.669 244.75 185.547C244.384 186.463 243.819 187.775 243.644 188.15C243.469 188.525 243.475 188.956 243.666 189.009C244.106 189.128 244.847 188.622 245.6 187.866C246.1 187.366 247.037 186.369 248.116 183.269C248.706 181.569 249.266 178.597 248.856 175.312C248.369 171.412 246.637 168.788 246.019 167.847C245.103 166.453 243.931 165.009 242.984 165.275Z" fill="#2C2F30"/>
<path d="M237.881 169.013C237.222 169.194 239.091 171.131 239.972 173.375C240.853 175.619 241.122 177.488 241.234 179.447C241.344 181.403 241.072 183.494 240.881 184.784C240.728 185.831 240.169 187.731 240.281 188.084C240.391 188.438 241.044 188.45 241.528 187.659C242.012 186.869 243.053 185.138 243.691 181.397C243.987 179.659 243.844 175.584 241.953 172.666C240.322 170.15 238.65 168.8 237.881 169.013Z" fill="#2C2F30"/>
<path d="M232.2 173.172C232.2 173.172 233.431 171.412 233.959 170.766C234.487 170.122 235.925 168.653 235.925 168.653C235.925 168.653 235.984 172.847 236.131 173.962C236.278 175.078 236.775 177.541 237.334 178.831C237.625 179.503 238.181 181.144 238.097 181.822C237.95 183.025 236.597 184.831 236.016 184.9C234.784 185.047 233.581 182.706 233.025 181.175C232.228 179.006 231.612 175.047 232.2 173.172Z" fill="#2C2F30"/>
<path d="M236.672 180.606C236.703 181.447 236.019 181.984 235.294 181.984C234.569 181.984 234.019 181.291 234.019 180.562C234.019 179.834 234.634 179.287 235.359 179.287C236.084 179.287 236.641 179.812 236.672 180.606Z" fill="#FFB805"/>
<path d="M235.397 180.575C235.206 180.794 234.672 180.791 234.481 180.566C234.291 180.341 234.316 179.884 234.591 179.653C234.866 179.419 235.25 179.375 235.478 179.722C235.638 179.969 235.631 180.303 235.397 180.575Z" fill="#FFEDC7"/>
</g>
<defs>
<linearGradient id="paint0_linear_0_1" x1="93.5497" y1="115.209" x2="-28.1173" y2="335.001" gradientUnits="userSpaceOnUse">
<stop stop-color="#9E958E"/>
<stop offset="0.46" stop-color="#8E8884"/>
<stop offset="1" stop-color="#757575"/>
</linearGradient>
<linearGradient id="paint1_linear_0_1" x1="-27.4251" y1="324.592" x2="52.5029" y2="261.304" gradientUnits="userSpaceOnUse">
<stop stop-color="#37474F"/>
<stop offset="0.612" stop-color="#42565F" stop-opacity="0.192"/>
<stop offset="0.757" stop-color="#455A64" stop-opacity="0"/>
</linearGradient>
<linearGradient id="paint2_linear_0_1" x1="111.276" y1="212.037" x2="48.7024" y2="111.17" gradientUnits="userSpaceOnUse">
<stop stop-color="#9E958E"/>
<stop offset="0.442" stop-color="#AEA298"/>
<stop offset="1" stop-color="#C9B8A9"/>
</linearGradient>
<linearGradient id="paint3_linear_0_1" x1="16.3668" y1="291.765" x2="45.482" y2="180.386" gradientUnits="userSpaceOnUse">
<stop stop-color="#4C5C64"/>
<stop offset="1" stop-color="#455A64" stop-opacity="0"/>
</linearGradient>
<linearGradient id="paint4_linear_0_1" x1="23.6554" y1="113.556" x2="67.9107" y2="113.765" gradientUnits="userSpaceOnUse">
<stop stop-color="#4C5C64"/>
<stop offset="1" stop-color="#455A64" stop-opacity="0"/>
</linearGradient>
<linearGradient id="paint5_linear_0_1" x1="92.4511" y1="232.933" x2="148.657" y2="249.881" gradientUnits="userSpaceOnUse">
<stop stop-color="#9E958E"/>
<stop offset="0.25" stop-color="#AEA298"/>
<stop offset="0.566" stop-color="#C9B8A9"/>
</linearGradient>
<linearGradient id="paint6_linear_0_1" x1="118.466" y1="332.105" x2="99.095" y2="276.319" gradientUnits="userSpaceOnUse">
<stop stop-color="#37474F"/>
<stop offset="0.808" stop-color="#42565F" stop-opacity="0.192"/>
<stop offset="1" stop-color="#455A64" stop-opacity="0"/>
</linearGradient>
<linearGradient id="paint7_linear_0_1" x1="208.55" y1="225.209" x2="86.8827" y2="445.001" gradientUnits="userSpaceOnUse">
<stop stop-color="#9E958E"/>
<stop offset="0.46" stop-color="#8E8884"/>
<stop offset="1" stop-color="#757575"/>
</linearGradient>
<linearGradient id="paint8_linear_0_1" x1="87.5749" y1="434.592" x2="167.503" y2="371.304" gradientUnits="userSpaceOnUse">
<stop stop-color="#37474F"/>
<stop offset="0.612" stop-color="#42565F" stop-opacity="0.192"/>
<stop offset="0.757" stop-color="#455A64" stop-opacity="0"/>
</linearGradient>
<linearGradient id="paint9_linear_0_1" x1="226.276" y1="322.037" x2="163.702" y2="221.17" gradientUnits="userSpaceOnUse">
<stop stop-color="#9E958E"/>
<stop offset="0.442" stop-color="#AEA298"/>
<stop offset="1" stop-color="#C9B8A9"/>
</linearGradient>
<linearGradient id="paint10_linear_0_1" x1="131.367" y1="401.765" x2="160.482" y2="290.386" gradientUnits="userSpaceOnUse">
<stop stop-color="#4C5C64"/>
<stop offset="1" stop-color="#455A64" stop-opacity="0"/>
</linearGradient>
<linearGradient id="paint11_linear_0_1" x1="138.655" y1="223.556" x2="182.911" y2="223.765" gradientUnits="userSpaceOnUse">
<stop stop-color="#4C5C64"/>
<stop offset="1" stop-color="#455A64" stop-opacity="0"/>
</linearGradient>
<linearGradient id="paint12_linear_0_1" x1="626.087" y1="189.955" x2="568.866" y2="357.763" gradientUnits="userSpaceOnUse">
<stop stop-color="#9E958E"/>
<stop offset="0.46" stop-color="#8E8884"/>
<stop offset="1" stop-color="#757575"/>
</linearGradient>
<linearGradient id="paint13_linear_0_1" x1="512.489" y1="331.498" x2="563.984" y2="267.298" gradientUnits="userSpaceOnUse">
<stop stop-color="#37474F"/>
<stop offset="0.612" stop-color="#42565F" stop-opacity="0.192"/>
<stop offset="0.757" stop-color="#455A64" stop-opacity="0"/>
</linearGradient>
<linearGradient id="paint14_linear_0_1" x1="645.482" y1="253.334" x2="610.266" y2="175.812" gradientUnits="userSpaceOnUse">
<stop stop-color="#9E958E"/>
<stop offset="0.442" stop-color="#AEA298"/>
<stop offset="1" stop-color="#C9B8A9"/>
</linearGradient>
<linearGradient id="paint15_linear_0_1" x1="554.537" y1="308.607" x2="565.772" y2="232.136" gradientUnits="userSpaceOnUse">
<stop stop-color="#4C5C64"/>
<stop offset="1" stop-color="#455A64" stop-opacity="0"/>
</linearGradient>
<linearGradient id="paint16_linear_0_1" x1="557.811" y1="190.835" x2="601.023" y2="189.726" gradientUnits="userSpaceOnUse">
<stop stop-color="#4C5C64"/>
<stop offset="1" stop-color="#455A64" stop-opacity="0"/>
</linearGradient>
<linearGradient id="paint17_linear_0_1" x1="627.553" y1="267.65" x2="678.259" y2="288.354" gradientUnits="userSpaceOnUse">
<stop stop-color="#9E958E"/>
<stop offset="0.25" stop-color="#AEA298"/>
<stop offset="0.566" stop-color="#C9B8A9"/>
</linearGradient>
<linearGradient id="paint18_linear_0_1" x1="655.091" y1="332.342" x2="644.773" y2="293.484" gradientUnits="userSpaceOnUse">
<stop stop-color="#37474F"/>
<stop offset="0.808" stop-color="#42565F" stop-opacity="0.192"/>
<stop offset="1" stop-color="#455A64" stop-opacity="0"/>
</linearGradient>
<linearGradient id="paint19_linear_0_1" x1="503.462" y1="232.119" x2="467.131" y2="341.687" gradientUnits="userSpaceOnUse">
<stop stop-color="#9E958E"/>
<stop offset="0.46" stop-color="#8E8884"/>
<stop offset="1" stop-color="#757575"/>
</linearGradient>
<linearGradient id="paint20_linear_0_1" x1="427.708" y1="324.043" x2="460.948" y2="281.49" gradientUnits="userSpaceOnUse">
<stop stop-color="#37474F"/>
<stop offset="0.612" stop-color="#42565F" stop-opacity="0.192"/>
<stop offset="0.757" stop-color="#455A64" stop-opacity="0"/>
</linearGradient>
<linearGradient id="paint21_linear_0_1" x1="516.357" y1="273.249" x2="493.882" y2="222.522" gradientUnits="userSpaceOnUse">
<stop stop-color="#9E958E"/>
<stop offset="0.442" stop-color="#AEA298"/>
<stop offset="1" stop-color="#C9B8A9"/>
</linearGradient>
<linearGradient id="paint22_linear_0_1" x1="455.735" y1="309.167" x2="462.816" y2="259.462" gradientUnits="userSpaceOnUse">
<stop stop-color="#4C5C64"/>
<stop offset="1" stop-color="#455A64" stop-opacity="0"/>
</linearGradient>
<linearGradient id="paint23_linear_0_1" x1="457.968" y1="232.72" x2="486.762" y2="231.981" gradientUnits="userSpaceOnUse">
<stop stop-color="#4C5C64"/>
<stop offset="1" stop-color="#455A64" stop-opacity="0"/>
</linearGradient>
<linearGradient id="paint24_linear_0_1" x1="504.405" y1="282.55" x2="537.91" y2="296.612" gradientUnits="userSpaceOnUse">
<stop stop-color="#9E958E"/>
<stop offset="0.25" stop-color="#AEA298"/>
<stop offset="0.566" stop-color="#C9B8A9"/>
</linearGradient>
<linearGradient id="paint25_linear_0_1" x1="522.725" y1="324.528" x2="516.166" y2="299.233" gradientUnits="userSpaceOnUse">
<stop stop-color="#37474F"/>
<stop offset="0.808" stop-color="#42565F" stop-opacity="0.192"/>
<stop offset="1" stop-color="#455A64" stop-opacity="0"/>
</linearGradient>
<linearGradient id="paint26_linear_0_1" x1="205.591" y1="278.746" x2="221.209" y2="369.183" gradientUnits="userSpaceOnUse">
<stop stop-color="#37474F"/>
<stop offset="0.612" stop-color="#42565F" stop-opacity="0.192"/>
<stop offset="0.757" stop-color="#455A64" stop-opacity="0"/>
</linearGradient>
<clipPath id="clip0_0_1">
<rect width="657" height="316" fill="white"/>
</clipPath>
<clipPath id="clip1_0_1">
<rect width="138.896" height="952.241" fill="white" transform="translate(1099.19 260) rotate(89.4145)"/>
</clipPath>
<clipPath id="clip2_0_1">
<rect width="138.896" height="952.241" fill="white" transform="translate(-431 395.887) rotate(-89.3682)"/>
</clipPath>
<clipPath id="clip3_0_1">
<rect width="31.2751" height="32.2294" fill="white" transform="translate(372.565 296.108) rotate(-45.7741)"/>
</clipPath>
<clipPath id="clip4_0_1">
<rect width="57" height="61" fill="white" transform="translate(99 233)"/>
</clipPath>
<clipPath id="clip5_0_1">
<rect width="57" height="61" fill="white" transform="translate(475 240)"/>
</clipPath>
<clipPath id="clip6_0_1">
<rect width="31.2751" height="32.2294" fill="white" transform="translate(193.286 272) rotate(34.5665)"/>
</clipPath>
</defs>
</svg>
