<svg width="357" height="277" viewBox="0 0 357 277" fill="none" xmlns="http://www.w3.org/2000/svg">
<path d="M134.506 66.2055C108.696 134.87 90.1738 170.217 53.2809 217.532C50.5886 220.985 53.2597 226.038 57.625 225.698L132.167 219.897L134.506 66.2055Z" fill="white"/>
<rect width="10" height="246" rx="5" transform="matrix(-0.999981 0.00613684 0.00613684 0.999981 139.156 1.1757)" fill="white"/>
<path d="M356.547 227.176C356.513 221.61 351.738 217.257 346.192 217.736L5.24154 247.233C1.21046 247.581 -0.758588 252.324 1.84018 255.426L18.3355 275.11C19.2924 276.252 20.7087 276.908 22.1985 276.899L309.171 275.138C335.498 274.976 356.709 253.503 356.547 227.176V227.176Z" fill="#EC0000"/>
<path d="M134.917 17.8288C131.05 15.1325 125.952 18.8507 127.268 23.3779C153.073 112.111 157.523 158.244 137.889 211.759C136.602 215.265 139.36 218.997 143.08 218.668L309.984 203.902C313.77 203.567 315.805 199.29 313.67 196.145C262.346 120.558 221.953 78.5057 134.917 17.8288Z" fill="white"/>
<path d="M134.183 5.49364C134.157 1.32156 129.334 -0.985972 126.07 1.61176L80.0615 38.2199C75.9914 41.4584 78.9568 47.9859 84.0734 47.051L130.254 38.6128C132.641 38.1767 134.371 36.0899 134.356 33.6636L134.183 5.49364Z" fill="#EC0000"/>
<circle cx="15" cy="15" r="15" transform="matrix(-0.999981 0.00613684 0.00613684 0.999981 324.564 230.042)" fill="#0085FF"/>
<circle cx="10" cy="10" r="10" transform="matrix(-0.999981 0.00613684 0.00613684 0.999981 286.602 236.275)" fill="#0085FF"/>
</svg>
