<svg width="357" height="276" viewBox="0 0 357 276" fill="none" xmlns="http://www.w3.org/2000/svg">
<path d="M221.05 66C247.28 134.505 266.019 169.738 303.202 216.825C305.915 220.261 303.275 225.331 298.908 225.018L224.332 219.674L221.05 66Z" fill="white"/>
<rect x="216" y="1" width="10" height="246" rx="5" fill="white"/>
<path d="M0 228.33C0 222.764 4.74878 218.381 10.2973 218.827L351.422 246.231C355.455 246.555 357.454 251.285 354.874 254.402L338.5 274.188C337.55 275.336 336.138 276 334.648 276H47.6695C21.3424 276 0 254.658 0 228.33Z" fill="#EC0000"/>
<path d="M220.341 17.6268C224.192 14.9068 229.313 18.5937 228.024 23.1288C202.765 112.019 198.598 158.178 218.56 211.572C219.868 215.07 217.133 218.819 213.411 218.513L46.4202 204.771C42.6317 204.459 40.5701 200.194 42.6861 197.037C93.5448 121.136 133.679 78.8367 220.341 17.6268Z" fill="white"/>
<path d="M221 5.28732C221 1.11516 225.808 -1.22192 229.089 1.35573L275.321 37.6808C279.411 40.8943 276.486 47.4399 271.363 46.5364L225.131 38.3818C222.742 37.9603 221 35.8842 221 33.4578V5.28732Z" fill="#EC0000"/>
<circle cx="47" cy="246" r="15" fill="#0085FF"/>
<circle cx="80" cy="247" r="10" fill="#0085FF"/>
</svg>
