<svg width="191" height="190" viewBox="0 0 191 190" fill="none" xmlns="http://www.w3.org/2000/svg">
<path d="M33 96.5C33 100.642 29.6421 104 25.5 104H7.5C3.35787 104 0 100.642 0 96.5V96.5C0 92.3579 3.35786 89 7.5 89H25.5C29.6421 89 33 92.3579 33 96.5V96.5Z" fill="#FFCC33"/>
<path d="M52.6378 50.6378C49.7089 53.5668 44.9602 53.5668 42.0312 50.6378L29.3033 37.9099C26.3744 34.981 26.3744 30.2322 29.3033 27.3033V27.3033C32.2322 24.3744 36.981 24.3744 39.9099 27.3033L52.6378 40.0312C55.5668 42.9602 55.5668 47.7089 52.6378 50.6378V50.6378Z" fill="#FFE484"/>
<path d="M162.638 162.638C159.709 165.567 154.96 165.567 152.031 162.638L139.303 149.91C136.374 146.981 136.374 142.232 139.303 139.303V139.303C142.232 136.374 146.981 136.374 149.91 139.303L162.638 152.031C165.567 154.96 165.567 159.709 162.638 162.638V162.638Z" fill="#FFE484"/>
<path d="M28.3033 162.638C25.3744 159.709 25.3744 154.96 28.3033 152.031L41.0312 139.303C43.9602 136.374 48.7089 136.374 51.6378 139.303V139.303C54.5668 142.232 54.5668 146.981 51.6378 149.91L38.9099 162.638C35.981 165.567 31.2322 165.567 28.3033 162.638V162.638Z" fill="#FFE484"/>
<path d="M95.5 33C91.3579 33 88 29.6421 88 25.5V7.5C88 3.35787 91.3579 0 95.5 0V0C99.6421 0 103 3.35786 103 7.5V25.5C103 29.6421 99.6421 33 95.5 33V33Z" fill="#FFCC33"/>
<path d="M95.5 190C91.3579 190 88 186.642 88 182.5V164.5C88 160.358 91.3579 157 95.5 157V157C99.6421 157 103 160.358 103 164.5V182.5C103 186.642 99.6421 190 95.5 190V190Z" fill="#FFCC33"/>
<path d="M139.303 50.6378C136.374 47.7089 136.374 42.9602 139.303 40.0312L152.031 27.3033C154.96 24.3744 159.709 24.3744 162.638 27.3033V27.3033C165.567 30.2322 165.567 34.981 162.638 37.9099L149.91 50.6378C146.981 53.5668 142.232 53.5668 139.303 50.6378V50.6378Z" fill="#FFE484"/>
<path d="M158 96.5C158 92.3579 161.358 89 165.5 89H183.5C187.642 89 191 92.3579 191 96.5V96.5C191 100.642 187.642 104 183.5 104H165.5C161.358 104 158 100.642 158 96.5V96.5Z" fill="#FFCC33"/>
<circle cx="96" cy="95" r="50" fill="#FFCC33"/>
</svg>
