<svg width="149" height="138" viewBox="0 0 149 138" fill="none" xmlns="http://www.w3.org/2000/svg">
<path d="M48.8909 8.01584C49.4249 4.34149 53.6187 2.44573 56.8701 4.23864C70.1691 11.5721 80.1304 11.2953 94.6148 3.65158C97.7343 2.00536 101.658 3.78183 102.293 7.25138C111.734 58.8344 122.336 86.6082 144.597 125.43C146.521 128.786 144.119 133 140.25 133H9.33889C5.34616 133 2.96361 128.538 5.12747 125.183C31.0374 85.0039 41.7752 56.9813 48.8909 8.01584Z" fill="#4C5C64"/>
<path d="M49.3331 5.6673C49.913 2.35397 53.5353 0.563999 56.6155 1.91559C71.0769 8.26132 81.2827 8.32936 95.71 2.00925C98.8436 0.63653 102.526 2.50575 103.033 5.88899L104.35 14.6664C104.722 17.1466 103.25 19.9079 102.124 22.1487C98.3092 29.7368 96.9818 46.3708 87.5 23.608C76.7028 -2.31281 53.5716 23.8688 47.8812 20.1325C47.0891 19.6124 47.0866 18.5044 47.25 17.571L49.3331 5.6673Z" fill="url(#paint0_linear_0_1)"/>
<defs>
<linearGradient id="paint0_linear_0_1" x1="75.9999" y1="-1" x2="75.9999" y2="35.1502" gradientUnits="userSpaceOnUse">
<stop stop-color="#FF3000"/>
<stop offset="1" stop-color="#FF6B00"/>
</linearGradient>
</defs>
</svg>
